<svg width="36" height="35" viewBox="0 0 36 35" fill="none" xmlns="http://www.w3.org/2000/svg">
<path d="M17.7935 23.3334C21.0151 23.3334 23.6268 20.7217 23.6268 17.5001C23.6268 14.2784 21.0151 11.6667 17.7935 11.6667C14.5718 11.6667 11.9601 14.2784 11.9601 17.5001C11.9601 20.7217 14.5718 23.3334 17.7935 23.3334Z" stroke="#6B7280" stroke-width="3" stroke-linecap="round" stroke-linejoin="round"/>
<path d="M23.6268 11.6666V18.9582C23.6268 20.1186 24.0877 21.2314 24.9082 22.0518C25.7287 22.8723 26.8415 23.3332 28.0018 23.3332C29.1621 23.3332 30.2749 22.8723 31.0954 22.0518C31.9158 21.2314 32.3768 20.1186 32.3768 18.9582V17.4999C32.3766 14.2085 31.2629 11.0139 29.217 8.43568C27.171 5.85743 24.313 4.04711 21.1077 3.29909C17.9024 2.55107 14.5383 2.90934 11.5625 4.31565C8.58664 5.72196 6.17402 8.09359 4.71695 11.0449C3.25987 13.9962 2.84402 17.3537 3.53702 20.5713C4.23003 23.789 5.99112 26.6775 8.53395 28.7674C11.0768 30.8572 14.2518 32.0254 17.5427 32.082C20.8336 32.1386 24.0469 31.0803 26.6601 29.0791" stroke="#6B7280" stroke-width="3" stroke-linecap="round" stroke-linejoin="round"/>
</svg>
