<svg width="36" height="35" viewBox="0 0 36 35" fill="none" xmlns="http://www.w3.org/2000/svg">
<path d="M25.0851 2.91675H10.5018C6.47472 2.91675 3.21013 6.18134 3.21013 10.2084V24.7917C3.21013 28.8188 6.47472 32.0834 10.5018 32.0834H25.0851C29.1122 32.0834 32.3768 28.8188 32.3768 24.7917V10.2084C32.3768 6.18134 29.1122 2.91675 25.0851 2.91675Z" stroke="#6B7280" stroke-width="3" stroke-linecap="round" stroke-linejoin="round"/>
<path d="M23.6268 16.5812C23.8068 17.7949 23.5995 19.0344 23.0344 20.1235C22.4693 21.2126 21.5751 22.0958 20.4792 22.6474C19.3832 23.199 18.1412 23.391 16.9298 23.1961C15.7184 23.0012 14.5994 22.4292 13.7318 21.5616C12.8642 20.6941 12.2922 19.575 12.0973 18.3636C11.9024 17.1522 12.0944 15.9102 12.646 14.8142C13.1977 13.7183 14.0808 12.8242 15.1699 12.2591C16.259 11.694 17.4985 11.4866 18.7122 11.6666C19.9502 11.8502 21.0964 12.4271 21.9814 13.3121C22.8663 14.197 23.4432 15.3432 23.6268 16.5812Z" stroke="#6B7280" stroke-width="3" stroke-linecap="round" stroke-linejoin="round"/>
<path d="M25.8143 9.47925H25.8289" stroke="#6B7280" stroke-width="3" stroke-linecap="round" stroke-linejoin="round"/>
</svg>
