<svg width="36" height="35" viewBox="0 0 36 35" fill="none" xmlns="http://www.w3.org/2000/svg">
<g clip-path="url(#clip0_1_214)">
<path d="M33.8351 4.37502C32.4386 5.36009 30.8924 6.11351 29.256 6.60627C28.3777 5.59639 27.2104 4.88061 25.912 4.55574C24.6137 4.23087 23.2469 4.31259 21.9965 4.78984C20.7461 5.26709 19.6724 6.11685 18.9207 7.22419C18.169 8.33152 17.7755 9.64301 17.7935 10.9813V12.4396C15.2306 12.5061 12.6911 11.9377 10.4012 10.785C8.1112 9.63242 6.14183 7.93136 4.66845 5.83335C4.66845 5.83335 -1.16488 18.9583 11.9601 24.7917C8.95672 26.8304 5.37889 27.8526 1.75179 27.7083C14.8768 35 30.9185 27.7083 30.9185 10.9375C30.9171 10.5313 30.8781 10.1261 30.8018 9.7271C32.2902 8.25928 33.3405 6.40606 33.8351 4.37502V4.37502Z" stroke="#6B7280" stroke-width="3" stroke-linecap="round" stroke-linejoin="round"/>
</g>
<defs>
<clipPath id="clip0_1_214">
<rect width="35" height="35" fill="white" transform="translate(0.293457)"/>
</clipPath>
</defs>
</svg>
