<svg width="158" height="51" viewBox="0 0 158 51" fill="none" xmlns="http://www.w3.org/2000/svg">
<g clip-path="url(#clip0_1_125)">
<path d="M147.79 30.4466V20.2466H144.262V16.8722H147.79V10.8902H151.553V16.8722H156.413V20.2466H151.553V30.2166C151.553 32.4406 152.494 33.3609 154.218 33.3609C154.924 33.3609 155.394 33.2842 155.943 33.0541L157.276 36.1985C156.413 36.582 155.551 36.7353 154.297 36.7353C149.985 36.7353 147.79 34.4346 147.79 30.4466ZM123.643 26.6887C123.643 21.1669 127.563 16.3354 133.364 16.3354C139.323 16.3354 143.086 20.4 143.086 26.6887C143.086 26.9955 143.007 27.379 143.007 27.379H127.249C127.485 31.5203 130.464 33.7444 133.6 33.7444C135.795 33.7444 137.99 32.9008 139.009 30.3699L142.302 31.7504C141.126 34.5113 138.225 37.0421 133.6 37.0421C127.72 37.0421 123.643 32.5173 123.643 26.6887ZM133.364 19.6331C130.621 19.6331 128.425 21.4737 127.641 24.3113H139.166C139.088 22.6241 137.598 19.6331 133.364 19.6331ZM105.376 33.6677H105.22V36.3519H101.613V7.97595H105.376V16.9489L105.22 19.6331H105.376C106.552 17.8692 108.983 16.2587 112.197 16.2587C117.215 16.2587 121.683 20.7068 121.683 26.612C121.683 32.5173 117.293 36.9654 112.197 36.9654C108.983 37.0421 106.474 35.5083 105.376 33.6677ZM117.842 26.6887C117.842 22.3173 114.863 19.6331 111.492 19.6331C108.199 19.6331 105.141 22.2406 105.141 26.6887C105.141 31.1369 108.12 33.7444 111.492 33.7444C114.863 33.6677 117.842 31.0602 117.842 26.6887ZM80.1324 30.5233C80.1324 26.0752 84.2091 23.6978 88.8346 23.6978C91.5001 23.6978 93.46 24.4647 94.244 24.9248V24.388C94.244 21.4737 91.8137 19.6331 89.0698 19.6331C87.0314 19.6331 84.9931 20.6301 84.2875 22.4707L80.838 21.0135C81.5436 19.2496 83.8955 16.2587 88.913 16.2587C93.7736 16.2587 97.7719 19.0963 97.7719 24.6181V36.3519H94.1656V33.6677H94.0088C92.9112 35.2782 90.8729 37.0421 87.5018 37.0421C83.5035 37.0421 80.1324 34.588 80.1324 30.5233ZM94.244 27.9925C94.244 27.9925 92.6761 26.6887 89.4617 26.6887C85.5419 26.6887 83.9739 28.7594 83.9739 30.5233C83.9739 32.594 86.169 33.591 88.129 33.591C91.1081 33.6677 94.244 31.2135 94.244 27.9925ZM63.1201 16.9489L62.9633 19.6331H63.1201C64.1393 17.8692 66.7264 16.2587 69.3919 16.2587C74.4878 16.2587 76.9965 19.6331 76.9965 24.4647V36.3519H73.2334V25.0015C73.2334 20.9369 71.1951 19.6331 68.2943 19.6331C65.08 19.6331 63.0417 22.6241 63.0417 25.6151V36.3519H59.2786V7.97595H63.0417L63.1201 16.9489ZM40.3847 33.6677H40.228L40.3847 36.3519V44.9414H36.6217V16.9489H40.228V19.6331H40.3847C41.5607 17.8692 43.991 16.2587 47.2053 16.2587C52.2228 16.2587 56.6915 20.7068 56.6915 26.612C56.6915 32.5173 52.2228 37.0421 47.127 37.0421C43.991 37.0421 41.4823 35.5083 40.3847 33.6677ZM52.85 26.6887C52.85 22.3173 49.8709 19.6331 46.4998 19.6331C43.2071 19.6331 40.1496 22.2406 40.1496 26.6887C40.1496 31.1369 43.1287 33.7444 46.4998 33.7444C49.8709 33.6677 52.85 31.0602 52.85 26.6887ZM28.9387 36.4286H32.7018V7.97595H28.9387V36.4286ZM11.6128 7.97595L0.637085 36.4286H4.79217L7.61449 28.6827H19.8445L22.6669 36.4286H26.7435L15.7679 7.97595H11.6128ZM13.5727 12.4241H13.7295L18.5118 25.3083H8.86885L13.5727 12.4241Z" fill="#B4A6A2"/>
</g>
<defs>
<clipPath id="clip0_1_125">
<rect width="157.109" height="51" fill="white" transform="translate(0.0882568)"/>
</clipPath>
</defs>
</svg>
