<svg width="157" height="51" viewBox="0 0 157 51" fill="none" xmlns="http://www.w3.org/2000/svg">
<path d="M94.6204 36.5053C85.1947 40.4166 74.99 42.3339 65.7201 42.3339C51.9321 42.3339 38.6115 38.6526 27.7836 32.4406C26.8488 31.9038 26.1478 32.9008 26.9267 33.591C36.8977 42.4105 50.1405 47.779 64.8632 47.779C75.3016 47.779 87.4538 44.4812 95.8668 38.4226C97.1911 37.4256 95.9447 35.8917 94.6204 36.5053Z" fill="#B4A6A2"/>
<path d="M89.3233 33.0541C88.6223 33.591 88.7781 34.2812 89.557 34.2045C92.2056 33.8978 98.2817 33.2075 99.3722 34.588C100.463 35.9684 98.2038 41.4902 97.1911 44.0211C96.8795 44.788 97.5806 45.0947 98.2038 44.5579C102.722 40.8767 103.89 33.0541 102.878 31.9805C101.943 30.6767 94.0751 29.7564 89.3233 33.0541Z" fill="#B4A6A2"/>
<path d="M105.682 23.6211C103.111 22.1639 100.073 21.7805 97.269 21.8572L104.903 11.1203C105.604 10.2 105.994 9.58648 105.994 9.12633V6.36543C105.994 5.82859 105.604 5.59851 105.137 5.59851H90.4139C89.9465 5.59851 89.6349 5.98197 89.6349 6.36543V9.58648C89.6349 10.1233 90.0244 10.3534 90.4918 10.3534H98.2038L89.3233 22.7775C88.7781 23.5444 88.7781 24.4647 88.7781 25.0015V28.2993C88.7781 28.8361 89.3233 29.2963 89.7907 28.9895C94.7762 26.382 100.774 26.612 105.293 28.9895C105.838 29.2963 106.383 28.6827 106.383 28.2993V24.9248C106.383 24.388 106.227 24.0045 105.682 23.6211Z" fill="#B4A6A2"/>
<path d="M31.6785 29.7564H36.1966C36.7419 29.7564 37.0535 29.3729 37.0535 28.9895V17.0256C37.0535 14.418 36.8977 10.8135 40.1695 10.8135C43.3633 10.8135 42.8959 14.4947 42.8959 17.0256V28.9895C42.8959 29.4496 43.2854 29.7564 43.6749 29.7564H48.193C48.7383 29.7564 49.0499 29.3729 49.0499 28.9895V17.0256C49.0499 15.7218 48.972 13.8045 49.5173 12.6541C49.9847 11.5038 51.0752 10.8135 52.1658 10.8135C53.4901 10.8135 54.5028 11.2737 54.7365 12.7308C54.9701 13.6511 54.8923 16.0286 54.8923 16.9489V28.9128C54.8923 29.3729 55.2817 29.6797 55.6712 29.6797H60.1893C60.7346 29.6797 61.0462 29.2962 61.0462 28.9128V14.6481C61.0462 12.194 61.3578 9.43307 59.8778 7.59247C58.6314 5.90525 56.5281 5.06165 54.7365 5.06165C52.1658 5.06165 49.6731 6.4421 48.5825 9.27969C47.3361 6.4421 45.6223 5.06165 42.818 5.06165C40.0916 5.06165 38.0662 6.4421 36.9756 9.27969H36.8977V6.36541C36.8977 5.90525 36.5082 5.67518 36.1187 5.59849H31.9901C31.4448 5.59849 31.1332 5.98195 31.1332 6.36541V28.9128C30.8995 29.3729 31.2111 29.6797 31.6785 29.7564Z" fill="#B4A6A2"/>
<path d="M118.613 5.13831C112.148 5.13831 108.564 10.6601 108.564 17.6391C108.564 24.618 112.148 30.2165 118.613 30.2165C124.845 30.2165 128.818 24.6947 128.818 17.8691C128.896 10.8135 125.312 5.13831 118.613 5.13831ZM118.613 25.5383C115.108 25.5383 115.108 19.633 115.108 16.8721C115.108 14.1112 115.341 9.73981 118.613 9.73981C120.093 9.73981 121.028 10.3533 121.495 11.9639C122.041 13.7278 122.119 16.0285 122.119 17.9458C122.274 20.8601 122.119 25.5383 118.613 25.5383Z" fill="#B4A6A2"/>
<path d="M144.164 5.13831C141.048 5.13831 139.334 6.67214 138.088 9.73981H138.01V6.28868C137.932 5.90522 137.542 5.67515 137.231 5.67515H133.102C132.635 5.67515 132.323 6.05861 132.245 6.36537V28.9127C132.245 29.3729 132.635 29.6797 133.024 29.6797H137.465C138.01 29.6797 138.321 29.2962 138.321 28.9127V16.7954C138.321 15.2616 138.399 13.8812 139.023 12.5007C139.568 11.427 140.58 10.7368 141.593 10.7368C144.709 10.7368 144.398 14.3413 144.398 16.7954V29.0661C144.475 29.4496 144.787 29.7563 145.176 29.7563H149.695C150.162 29.7563 150.474 29.4496 150.551 29.0661V14.8782C150.551 12.6541 150.551 9.66312 149.383 7.89921C148.137 5.82853 146.189 5.13831 144.164 5.13831Z" fill="#B4A6A2"/>
<path d="M78.0281 14.4947C75.4574 14.8015 72.1078 15.0316 69.6151 16.0286C66.8107 17.2556 64.8632 19.6331 64.8632 23.2376C64.8632 27.8391 67.7455 30.0632 71.5625 30.0632C74.7564 30.0632 76.4701 29.3729 78.9629 26.8421C79.7419 27.9925 80.0534 28.5293 81.5335 29.7564C81.923 29.9098 82.2346 29.9098 82.6241 29.6797C83.481 28.9128 85.1947 27.5323 86.0516 26.7654C86.4411 26.4586 86.3632 25.9985 86.0516 25.615C85.2726 24.4647 84.4158 23.621 84.4158 21.5504V14.7248C84.4158 11.8105 84.6495 9.12631 82.4683 7.13232C80.8324 5.5218 77.8723 4.90826 75.6911 4.90826C71.4067 4.90826 66.7328 6.4421 65.7201 11.5804C65.6422 12.1173 66.0317 12.4241 66.3433 12.5007L70.5498 13.0376C71.0172 13.0376 71.2509 12.5774 71.3288 12.2707C71.7183 10.5068 73.1984 9.66315 74.9121 9.66315C75.8469 9.66315 76.8596 10.0466 77.4828 10.8135C78.106 11.7338 78.0281 12.9609 78.0281 14.0346V14.4947ZM77.0933 23.621C76.3922 24.8481 75.3016 25.615 73.9774 25.615C72.2636 25.615 71.2509 24.3113 71.2509 22.394C71.2509 18.6361 74.6785 17.9459 77.9502 17.9459V18.8662C78.0281 20.7068 78.0281 22.1639 77.0933 23.621Z" fill="#B4A6A2"/>
<path d="M27.3941 25.615C26.6151 24.4647 25.7583 23.621 25.7583 21.5504V14.7248C25.7583 11.8105 25.992 9.12631 23.8108 7.13232C22.097 5.5218 19.2148 4.90826 17.0336 4.90826C12.7492 4.90826 8.07531 6.4421 7.06264 11.5804C6.98474 12.1173 7.37423 12.4241 7.68582 12.5007L12.0481 12.9609C12.5155 12.9609 12.7492 12.5007 12.8271 12.194C13.2166 10.4301 14.6967 9.58646 16.4883 9.58646C17.4231 9.58646 18.4358 9.96992 19.059 10.7368C19.6822 11.6571 19.6043 12.8842 19.6043 13.9579V14.4947C16.9557 14.8015 13.6061 15.0316 11.1134 16.0286C8.30901 17.2556 6.36155 19.6331 6.36155 23.2376C6.36155 27.8391 9.24379 30.0632 13.0608 30.0632C16.2546 30.0632 17.9684 29.3729 20.4612 26.8421C21.2401 27.9925 21.5517 28.5293 23.0318 29.7564C23.4213 29.9098 23.7329 29.9098 24.1224 29.6797C24.9793 28.9128 26.693 27.5323 27.5499 26.7654C27.7836 26.4586 27.7057 25.9985 27.3941 25.615ZM18.6695 23.621C17.9684 24.8481 16.8778 25.615 15.5536 25.615C13.8398 25.615 12.905 24.3113 12.905 22.394C12.905 18.6361 16.3325 17.9459 19.6043 17.9459V18.8662C19.4485 20.7068 19.5264 22.1639 18.6695 23.621Z" fill="#B4A6A2"/>
</svg>
