<svg width="158" height="51" viewBox="0 0 158 51" fill="none" xmlns="http://www.w3.org/2000/svg">
<g clip-path="url(#clip0_1_137)">
<path d="M39.4239 17.7925H21.0789V23.0842H34.0929C33.4657 30.5233 27.1155 33.7444 21.0789 33.7444C13.3959 33.7444 6.73208 27.8391 6.73208 19.5564C6.81048 11.5038 13.1607 5.36843 21.1573 5.36843C27.3507 5.36843 30.957 9.20302 30.957 9.20302L34.7985 5.36843C34.7985 5.36843 29.9378 0.0767011 21.0005 0.0767011C9.5544 9.39518e-06 0.852249 9.3564 0.852249 19.4797C0.852249 29.3729 9.08401 39.0361 21.2357 39.0361C31.8978 39.0361 39.7375 31.9038 39.7375 21.3203C39.7375 19.0962 39.4239 17.7925 39.4239 17.7925Z" fill="#B4A6A2"/>
<path d="M54.3979 13.9579C46.8717 13.9579 41.4623 19.7098 41.4623 26.3819C41.4623 33.2075 46.7149 39.0361 54.4763 39.0361C61.5321 39.0361 67.2551 33.7443 67.2551 26.5353C67.2551 18.1759 60.5913 13.9579 54.3979 13.9579ZM54.4763 18.8662C58.161 18.8662 61.6889 21.7804 61.6889 26.4586C61.6889 31.0601 58.2394 34.0511 54.4763 34.0511C50.3996 34.0511 47.1853 30.8301 47.1853 26.3819C47.1069 22.0872 50.3212 18.8662 54.4763 18.8662Z" fill="#B4A6A2"/>
<path d="M82.4643 13.9579C74.9381 13.9579 69.5287 19.7098 69.5287 26.3819C69.5287 33.2075 74.7813 39.0361 82.5427 39.0361C89.5985 39.0361 95.3216 33.7443 95.3216 26.5353C95.3216 18.1759 88.6577 13.9579 82.4643 13.9579ZM82.5427 18.8662C86.2274 18.8662 89.7553 21.7804 89.7553 26.4586C89.7553 31.0601 86.3058 34.0511 82.5427 34.0511C78.466 34.0511 75.2517 30.8301 75.2517 26.3819C75.1733 22.0872 78.3876 18.8662 82.5427 18.8662Z" fill="#B4A6A2"/>
<path d="M109.982 13.9579C103.083 13.9579 97.6735 19.8631 97.6735 26.5353C97.6735 34.0511 103.945 39.1128 109.904 39.1128C113.588 39.1128 115.47 37.6556 116.959 36.0451V38.4992C116.959 42.794 114.294 45.4015 110.217 45.4015C106.297 45.4015 104.337 42.5639 103.632 40.9534L98.6143 42.9474C100.339 46.5519 103.867 50.3098 110.139 50.3098C116.959 50.3098 122.212 46.0917 122.212 37.1955V14.7248H116.803V16.8722C115.235 15.1083 112.961 13.9579 109.982 13.9579ZM110.452 18.8662C113.823 18.8662 117.273 21.7037 117.273 26.5353C117.273 31.4436 113.823 34.1278 110.374 34.1278C106.689 34.1278 103.24 31.2135 103.24 26.5353C103.318 21.7037 106.846 18.8662 110.452 18.8662Z" fill="#B4A6A2"/>
<path d="M146.202 13.8812C139.695 13.8812 134.207 18.9428 134.207 26.3819C134.207 34.2812 140.322 38.9594 146.829 38.9594C152.238 38.9594 155.609 36.0451 157.569 33.4376L153.101 30.5233C151.925 32.2872 150.043 33.9744 146.829 33.9744C143.223 33.9744 141.576 32.0571 140.557 30.1398L157.726 23.1609L156.864 21.0902C155.139 17.2556 151.298 13.8812 146.202 13.8812ZM146.358 18.7127C148.71 18.7127 150.357 19.9398 151.141 21.397L139.616 26.0751C139.146 22.4706 142.674 18.7127 146.358 18.7127Z" fill="#B4A6A2"/>
<path d="M125.975 38.2692H131.62V1.30377H125.975V38.2692Z" fill="#B4A6A2"/>
</g>
<defs>
<clipPath id="clip0_1_137">
<rect width="157.109" height="51" fill="white" transform="translate(0.617065)"/>
</clipPath>
</defs>
</svg>
