<svg width="158" height="51" viewBox="0 0 158 51" fill="none" xmlns="http://www.w3.org/2000/svg">
<g clip-path="url(#clip0_1_144)">
<path d="M22.8234 44.3278C20.4714 44.7113 18.1195 44.8646 15.6108 45.1714L8.08458 23.5443V46.0917C5.73265 46.3218 3.61591 46.6285 1.34238 47.012V5.67517H7.6142L16.1596 29.1428V5.67517H22.8234V44.3278ZM35.8374 20.8601C38.4245 20.8601 42.3444 20.7067 44.6963 20.7067V27.1489C41.7956 27.1489 38.3461 27.1489 35.8374 27.3022V36.8887C39.6789 36.6586 43.5988 36.3519 47.5187 36.1985V42.4105L29.252 43.791V5.67517H47.5187V12.1173H35.8374C35.8374 12.194 35.8374 20.8601 35.8374 20.8601ZM71.9788 12.194H65.1581V41.8737C62.963 41.8737 60.6895 41.8737 58.5727 41.9504V12.194H51.7521V5.67517H72.0572C71.9788 5.67517 71.9788 12.194 71.9788 12.194ZM82.7192 20.4H91.735V26.8421H82.7192V41.4902H76.2122V5.67517H94.6357V12.1173H82.7192C82.7192 12.194 82.7192 20.4 82.7192 20.4ZM105.376 35.815C109.139 35.8917 112.902 36.1985 116.587 36.3519V42.7173C110.707 42.3338 104.827 42.027 98.7908 41.8737V5.67517H105.376V35.815ZM122.153 43.1774C124.27 43.3308 126.465 43.4075 128.66 43.6376V5.67517H122.153V43.1774ZM157.511 5.67517L149.122 25.3083L157.511 46.9353C155.002 46.6286 152.572 46.1684 150.063 45.7849L145.359 33.821L140.498 44.7879C138.146 44.4045 135.795 44.2511 133.443 43.9443L141.91 25.0782L134.227 5.67517H141.282L145.594 16.4887L150.22 5.67517H157.511Z" fill="#B4A6A2"/>
</g>
<defs>
<clipPath id="clip0_1_144">
<rect width="157.109" height="51" fill="white" transform="translate(0.793579)"/>
</clipPath>
</defs>
</svg>
