<svg width="158" height="51" viewBox="0 0 158 51" fill="none" xmlns="http://www.w3.org/2000/svg">
<g clip-path="url(#clip0_1_146)">
<path d="M33.9758 11.8872C33.9758 11.6571 33.7406 11.5804 33.5838 11.5037C33.427 11.5037 30.0559 11.2737 30.0559 11.2737C30.0559 11.2737 27.704 8.97292 27.4688 8.74284C27.2336 8.51276 26.6848 8.58946 26.528 8.58946C26.528 8.58946 25.9792 8.74284 25.1953 8.97292C24.4113 6.74885 23.0785 4.75487 20.6482 4.75487H20.413C19.7074 3.83457 18.845 3.45111 18.1395 3.45111C12.4948 3.45111 9.8293 10.3534 8.96692 13.8812C6.77178 14.5714 5.20383 15.0316 5.04703 15.0316C3.87107 15.415 3.79267 15.415 3.63587 16.5654C3.47908 17.5624 0.264771 41.8737 0.264771 41.8737L25.2737 46.4752L38.8365 43.6376C38.7581 43.5609 34.0542 12.1173 33.9758 11.8872ZM23.8625 9.43307C23.2353 9.66314 22.5297 9.81652 21.7458 10.0466V9.58645C21.7458 8.206 21.5106 7.13231 21.197 6.21201C22.4513 6.51878 23.3137 7.89923 23.8625 9.43307ZM19.7074 6.59547C20.021 7.43908 20.2562 8.66615 20.2562 10.2767V10.5067C18.9234 10.8902 17.3555 11.3504 15.8659 11.8105C16.7283 8.74284 18.2963 7.13231 19.7074 6.59547ZM17.9827 5.06164C18.2179 5.06164 18.4531 5.13833 18.6882 5.29171C16.8851 6.13532 14.9252 8.206 14.1412 12.424C12.9652 12.8075 11.7892 13.1143 10.6917 13.4977C11.7108 10.2767 13.9844 5.06164 17.9827 5.06164Z" fill="#B4A6A2"/>
<path d="M33.6622 11.5804C33.5054 11.5804 30.1343 11.3503 30.1343 11.3503C30.1343 11.3503 27.7824 9.0496 27.5472 8.81952C27.4688 8.74283 27.312 8.66614 27.1552 8.66614L25.2737 46.4752L38.8365 43.6376C38.8365 43.6376 34.0542 12.194 34.0542 11.9639C33.9758 11.6571 33.819 11.5804 33.6622 11.5804Z" fill="#B4A6A2"/>
<path d="M20.6482 18.8662L19.0018 23.6978C19.0018 23.6978 17.5123 22.9309 15.7091 22.9309C13.0436 22.9309 12.9652 24.5414 12.9652 24.9248C12.9652 27.1489 18.845 27.9925 18.845 33.2075C18.845 37.2722 16.1795 39.9564 12.6516 39.9564C8.33973 39.9564 6.14459 37.3489 6.14459 37.3489L7.32056 33.6677C7.32056 33.6677 9.59409 35.585 11.4756 35.585C12.73 35.585 13.2004 34.588 13.2004 33.8978C13.2004 30.9835 8.33973 30.8301 8.33973 26.0752C8.33973 22.0872 11.3188 18.176 17.1987 18.176C19.5506 18.2527 20.6482 18.8662 20.6482 18.8662Z" fill="white"/>
<path d="M54.5944 27.9925C53.2616 27.3023 52.5561 26.6887 52.5561 25.8451C52.5561 24.7714 53.4968 24.0812 55.0648 24.0812C56.7895 24.0812 58.3575 24.7714 58.3575 24.7714L59.6119 21.0902C59.6119 21.0902 58.4359 20.2466 55.1432 20.2466C50.5177 20.2466 47.225 22.8542 47.225 26.5354C47.225 28.606 48.7146 30.2166 50.7529 31.3669C52.3993 32.2872 52.948 32.9008 52.948 33.8978C52.948 34.8948 52.1641 35.6617 50.5961 35.6617C48.3226 35.6617 46.2058 34.5113 46.2058 34.5113L44.9515 38.1158C44.9515 38.1158 46.9114 39.4196 50.2041 39.4196C54.9864 39.4196 58.4359 37.1188 58.4359 32.9775C58.4359 30.7534 56.7111 29.1429 54.5944 27.9925ZM73.6451 20.2466C71.2931 20.2466 69.4116 21.3203 68.0004 23.0075H67.922L69.9604 12.5775H64.6293L59.4551 39.1128H64.7861L66.5893 29.9865C67.2948 26.5354 69.098 24.388 70.8227 24.388C71.9987 24.388 72.4691 25.1549 72.4691 26.3053C72.4691 26.9955 72.3907 27.9158 72.2339 28.606L70.1956 39.0361H75.5266L77.6433 28.2993C77.8785 27.1489 78.0353 25.7684 78.0353 24.9248C77.9569 22.0105 76.389 20.2466 73.6451 20.2466ZM90.0302 20.2466C83.6016 20.2466 79.3681 25.9218 79.3681 32.2105C79.3681 36.2752 81.9552 39.4963 86.7375 39.4963C93.0093 39.4963 97.2428 33.9745 97.2428 27.5323C97.2428 23.7745 95.0476 20.2466 90.0302 20.2466ZM87.4431 35.4316C85.6399 35.4316 84.8559 33.8978 84.8559 32.0572C84.8559 29.0662 86.4239 24.1579 89.3246 24.1579C91.2062 24.1579 91.8333 25.7684 91.8333 27.3023C91.8333 30.5233 90.2654 35.4316 87.4431 35.4316ZM110.884 20.2466C107.278 20.2466 105.239 23.3143 105.239 23.3143H105.161L105.475 20.5534H100.771C100.535 22.4707 100.144 25.3083 99.6731 27.4557L95.9884 46.5519H101.319L102.809 38.806H102.887C102.887 38.806 103.985 39.4963 106.023 39.4963C112.295 39.4963 116.372 33.2075 116.372 26.9188C116.372 23.3143 114.804 20.2466 110.884 20.2466ZM105.788 35.5083C104.377 35.5083 103.593 34.7414 103.593 34.7414L104.455 29.8331C105.083 26.612 106.807 24.388 108.689 24.388C110.335 24.388 110.806 25.8451 110.806 27.2256C110.806 30.7534 108.767 35.5083 105.788 35.5083ZM123.976 12.7308C122.252 12.7308 120.919 14.0346 120.919 15.7218C120.919 17.2557 121.938 18.3293 123.428 18.3293H123.506C125.152 18.3293 126.564 17.2557 126.642 15.3384C126.642 13.8045 125.623 12.7308 123.976 12.7308ZM116.529 39.0361H121.86L125.466 20.5534H120.135L116.529 39.0361ZM139.029 20.6301H135.344L135.501 19.7865C135.814 18.0226 136.912 16.412 138.637 16.412C139.578 16.412 140.362 16.6421 140.362 16.6421L141.381 12.5775C141.381 12.5775 140.44 12.1173 138.48 12.1173C136.598 12.1173 134.717 12.6542 133.227 13.8812C131.424 15.4151 130.562 17.5624 130.17 19.7865L130.013 20.6301H127.504L126.72 24.5414H129.229L126.407 39.1128H131.738L134.56 24.5414H138.245L139.029 20.6301ZM151.808 20.6301C151.808 20.6301 148.437 28.8361 146.947 33.2842H146.869C146.79 31.8271 145.536 20.6301 145.536 20.6301H139.891L143.105 37.579C143.184 37.9624 143.105 38.1925 143.027 38.4226C142.4 39.5729 141.381 40.7233 140.126 41.5669C139.107 42.2572 138.01 42.7173 137.147 43.0241L138.637 47.4722C139.734 47.2421 141.929 46.3985 143.889 44.6346C146.32 42.4105 148.593 38.9594 150.867 34.2812L157.374 20.6301H151.808Z" fill="#B4A6A2"/>
</g>
<defs>
<clipPath id="clip0_1_146">
<rect width="157.109" height="51" fill="white" transform="translate(0.264771)"/>
</clipPath>
</defs>
</svg>
